<svg xmlns="http://www.w3.org/2000/svg" xmlns:xlink="http://www.w3.org/1999/xlink" width="500" zoomAndPan="magnify" viewBox="0 0 375 149.999998" height="200" preserveAspectRatio="xMidYMid meet" version="1.0"><defs><filter x="0%" y="0%" width="100%" height="100%" id="19d290f8e1"><feColorMatrix values="0 0 0 0 1 0 0 0 0 1 0 0 0 0 1 0 0 0 1 0" color-interpolation-filters="sRGB"/></filter><g/><clipPath id="c0a8a3371d"><path d="M 100.082031 0 L 274.917969 0 L 274.917969 150 L 100.082031 150 Z M 100.082031 0 " clip-rule="nonzero"/></clipPath><clipPath id="7015d17a3a"><path d="M 25.914062 29.078125 L 117.414062 29.078125 L 117.414062 120.578125 L 25.914062 120.578125 Z M 25.914062 29.078125 " clip-rule="nonzero"/></clipPath><mask id="5234fdd168"><g filter="url(#19d290f8e1)"><rect x="-37.5" width="450" fill="#000000" y="-15" height="179.999997" fill-opacity="0.149"/></g></mask><clipPath id="eb0050eaa6"><path d="M 0.519531 0.640625 L 43 0.640625 L 43 85 L 0.519531 85 Z M 0.519531 0.640625 " clip-rule="nonzero"/></clipPath><clipPath id="3835765e36"><rect x="0" width="44" y="0" height="86"/></clipPath></defs><rect x="-37.5" width="450" fill="#ffffff" y="-15" height="179.999997" fill-opacity="1"/><rect x="-37.5" width="450" fill="#ffffff" y="-15" height="179.999997" fill-opacity="1"/><g clip-path="url(#c0a8a3371d)"><path fill="#ffffff" d="M 100.082031 -12.417969 L 274.917969 -12.417969 L 274.917969 162.417969 L 100.082031 162.417969 Z M 100.082031 -12.417969 " fill-opacity="1" fill-rule="nonzero"/></g><g fill="#724c9f" fill-opacity="1"><g transform="translate(124.172633, 98.322462)"><g><path d="M 26.390625 -23.53125 L 26.328125 -23.265625 C 27.390625 -22.378906 28.390625 -20.976562 29.328125 -19.0625 L 38.859375 0 L 27.65625 0 L 18.203125 -20.265625 L 14.390625 -20.265625 C 14.523438 -18.796875 14.484375 -17.265625 14.265625 -15.671875 L 12.0625 0 L 1.859375 0 L 8.328125 -46 L 18.53125 -46 L 16.59375 -32.46875 C 16.375 -30.769531 16.019531 -29.125 15.53125 -27.53125 L 19.265625 -27.53125 L 33 -46 L 44.71875 -46 L 30.390625 -27.0625 C 29.328125 -25.59375 27.992188 -24.414062 26.390625 -23.53125 Z M 26.390625 -23.53125 "/></g></g></g><g fill="#724c9f" fill-opacity="1"><g transform="translate(166.158706, 98.322462)"><g><path d="M 31.46875 -7.796875 L 32.125 -1.53125 C 28.4375 0.0195312 23.613281 0.796875 17.65625 0.796875 C 11.394531 0.796875 7.085938 -0.664062 4.734375 -3.59375 C 2.378906 -6.53125 1.554688 -11.039062 2.265625 -17.125 C 3.066406 -23.53125 4.890625 -27.910156 7.734375 -30.265625 C 10.578125 -32.617188 15.109375 -33.796875 21.328125 -33.796875 C 27.109375 -33.796875 31.03125 -32.835938 33.09375 -30.921875 C 35.15625 -29.015625 35.921875 -26.195312 35.390625 -22.46875 C 34.953125 -19.351562 33.6875 -17.128906 31.59375 -15.796875 C 29.507812 -14.460938 26.289062 -13.640625 21.9375 -13.328125 L 12.203125 -12.59375 C 12.242188 -10.414062 12.785156 -8.945312 13.828125 -8.1875 C 14.867188 -7.4375 16.523438 -7.0625 18.796875 -7.0625 C 23.109375 -7.0625 27.332031 -7.304688 31.46875 -7.796875 Z M 12.796875 -18.390625 L 20.46875 -19.125 C 22.238281 -19.257812 23.535156 -19.613281 24.359375 -20.1875 C 25.179688 -20.769531 25.679688 -21.835938 25.859375 -23.390625 C 25.992188 -24.859375 25.71875 -25.769531 25.03125 -26.125 C 24.34375 -26.476562 22.882812 -26.632812 20.65625 -26.59375 C 18.082031 -26.59375 16.273438 -26.046875 15.234375 -24.953125 C 14.191406 -23.867188 13.378906 -21.679688 12.796875 -18.390625 Z M 12.796875 -18.390625 "/></g></g></g><g fill="#724c9f" fill-opacity="1"><g transform="translate(203.479656, 98.322462)"><g><path d="M 31.46875 -7.796875 L 32.125 -1.53125 C 28.4375 0.0195312 23.613281 0.796875 17.65625 0.796875 C 11.394531 0.796875 7.085938 -0.664062 4.734375 -3.59375 C 2.378906 -6.53125 1.554688 -11.039062 2.265625 -17.125 C 3.066406 -23.53125 4.890625 -27.910156 7.734375 -30.265625 C 10.578125 -32.617188 15.109375 -33.796875 21.328125 -33.796875 C 27.109375 -33.796875 31.03125 -32.835938 33.09375 -30.921875 C 35.15625 -29.015625 35.921875 -26.195312 35.390625 -22.46875 C 34.953125 -19.351562 33.6875 -17.128906 31.59375 -15.796875 C 29.507812 -14.460938 26.289062 -13.640625 21.9375 -13.328125 L 12.203125 -12.59375 C 12.242188 -10.414062 12.785156 -8.945312 13.828125 -8.1875 C 14.867188 -7.4375 16.523438 -7.0625 18.796875 -7.0625 C 23.109375 -7.0625 27.332031 -7.304688 31.46875 -7.796875 Z M 12.796875 -18.390625 L 20.46875 -19.125 C 22.238281 -19.257812 23.535156 -19.613281 24.359375 -20.1875 C 25.179688 -20.769531 25.679688 -21.835938 25.859375 -23.390625 C 25.992188 -24.859375 25.71875 -25.769531 25.03125 -26.125 C 24.34375 -26.476562 22.882812 -26.632812 20.65625 -26.59375 C 18.082031 -26.59375 16.273438 -26.046875 15.234375 -24.953125 C 14.191406 -23.867188 13.378906 -21.679688 12.796875 -18.390625 Z M 12.796875 -18.390625 "/></g></g></g><g fill="#724c9f" fill-opacity="1"><g transform="translate(240.800606, 98.322462)"><g><path d="M 13.671875 -32.859375 L 13.53125 -26.53125 C 15.488281 -28.53125 17.6875 -30.21875 20.125 -31.59375 C 22.570312 -32.96875 24.972656 -33.65625 27.328125 -33.65625 C 31.191406 -33.65625 33.859375 -32.300781 35.328125 -29.59375 C 36.796875 -26.882812 37.082031 -22.285156 36.1875 -15.796875 C 35.789062 -12.953125 35.25 -10.519531 34.5625 -8.5 C 33.875 -6.476562 33.082031 -4.863281 32.1875 -3.65625 C 31.300781 -2.457031 30.222656 -1.515625 28.953125 -0.828125 C 27.691406 -0.140625 26.425781 0.3125 25.15625 0.53125 C 23.894531 0.75 22.394531 0.859375 20.65625 0.859375 C 17.414062 0.859375 14.148438 0.570312 10.859375 0 C 10.859375 2.09375 10.703125 4.160156 10.390625 6.203125 L 9.328125 12.671875 L -0.53125 12.671875 L 5.859375 -32.859375 Z M 12.0625 -6 L 17.125 -6 C 20.507812 -6 22.722656 -6.566406 23.765625 -7.703125 C 24.804688 -8.835938 25.617188 -11.582031 26.203125 -15.9375 C 26.734375 -20.113281 26.832031 -22.789062 26.5 -23.96875 C 26.164062 -25.144531 25.242188 -25.734375 23.734375 -25.734375 C 22.578125 -25.734375 21.109375 -25.242188 19.328125 -24.265625 C 17.554688 -23.285156 15.78125 -21.972656 14 -20.328125 Z M 12.0625 -6 "/></g></g></g><g fill="#724c9f" fill-opacity="1"><g transform="translate(280.32083, 98.322462)"><g><path d="M 30.65625 -26.59375 L 40.390625 -26.59375 L 36.65625 0 L 29.265625 0 L 29 -5.671875 C 25 -1.316406 20.375 0.859375 15.125 0.859375 C 10.414062 0.859375 7.070312 -1.070312 5.09375 -4.9375 C 3.125 -8.800781 2.648438 -14.953125 3.671875 -23.390625 C 4.285156 -28.191406 5.203125 -32.144531 6.421875 -35.25 C 7.648438 -38.363281 9.273438 -40.765625 11.296875 -42.453125 C 13.316406 -44.148438 15.546875 -45.304688 17.984375 -45.921875 C 20.429688 -46.546875 23.476562 -46.859375 27.125 -46.859375 C 32.632812 -46.859375 37.320312 -46.300781 41.1875 -45.1875 L 39.921875 -37.796875 C 34.898438 -38.015625 30.679688 -38.125 27.265625 -38.125 C 22.953125 -38.125 19.914062 -37.113281 18.15625 -35.09375 C 16.40625 -33.070312 15.109375 -28.90625 14.265625 -22.59375 C 13.554688 -16.945312 13.554688 -13.09375 14.265625 -11.03125 C 14.972656 -8.96875 16.660156 -7.9375 19.328125 -7.9375 C 21.191406 -7.9375 22.789062 -8.300781 24.125 -9.03125 C 25.457031 -9.757812 26.992188 -10.925781 28.734375 -12.53125 Z M 30.65625 -26.59375 "/></g></g></g><g fill="#724c9f" fill-opacity="1"><g transform="translate(323.17327, 98.322462)"><g><path d="M 21 -33.796875 C 27.082031 -33.796875 31.320312 -32.414062 33.71875 -29.65625 C 36.125 -26.90625 36.882812 -22.351562 36 -16 C 35.15625 -9.820312 33.320312 -5.46875 30.5 -2.9375 C 27.675781 -0.40625 23.285156 0.859375 17.328125 0.859375 C 11.285156 0.859375 7.03125 -0.515625 4.5625 -3.265625 C 2.09375 -6.023438 1.304688 -10.535156 2.203125 -16.796875 C 3.085938 -23.015625 4.929688 -27.398438 7.734375 -29.953125 C 10.535156 -32.515625 14.957031 -33.796875 21 -33.796875 Z M 20.9375 -26.390625 C 18.21875 -26.390625 16.269531 -25.703125 15.09375 -24.328125 C 13.914062 -22.953125 13.039062 -20.175781 12.46875 -16 C 11.9375 -12.175781 12.003906 -9.640625 12.671875 -8.390625 C 13.335938 -7.148438 14.957031 -6.53125 17.53125 -6.53125 C 20.195312 -6.53125 22.109375 -7.226562 23.265625 -8.625 C 24.421875 -10.03125 25.285156 -12.753906 25.859375 -16.796875 C 26.441406 -20.617188 26.382812 -23.171875 25.6875 -24.453125 C 25 -25.742188 23.414062 -26.390625 20.9375 -26.390625 Z M 20.9375 -26.390625 "/></g></g></g><g fill="#724c9f" fill-opacity="1"><g transform="translate(362.217943, 98.322462)"><g/></g></g><path fill="#ffffff" d="M 113.570312 74.828125 C 113.570312 76.476562 113.460938 78.085938 113.277344 79.660156 C 112.253906 88.664062 108.371094 96.824219 102.515625 103.15625 C 98.671875 107.367188 93.988281 110.769531 88.753906 113.074219 C 83.519531 115.453125 77.738281 116.734375 71.625 116.734375 C 65.878906 116.734375 60.425781 115.5625 55.449219 113.476562 C 49.847656 111.136719 44.835938 107.585938 40.773438 103.15625 C 34.917969 96.824219 31.035156 88.664062 30.011719 79.660156 C 29.828125 78.085938 29.71875 76.476562 29.71875 74.828125 C 29.71875 66.300781 32.246094 58.359375 36.636719 51.734375 C 41.503906 44.339844 48.640625 38.628906 57.058594 35.484375 C 61.632812 33.835938 66.539062 32.921875 71.664062 32.921875 C 77.480469 32.921875 83.007812 34.09375 88.023438 36.25 C 96.074219 39.691406 102.847656 45.546875 107.382812 52.941406 C 111.300781 59.308594 113.570312 66.8125 113.570312 74.828125 Z M 113.570312 74.828125 " fill-opacity="1" fill-rule="nonzero"/><g clip-path="url(#7015d17a3a)"><path fill="#100906" d="M 110.679688 50.929688 C 105.738281 42.875 98.234375 36.398438 89.558594 32.738281 C 83.851562 30.285156 77.847656 29.078125 71.664062 29.078125 C 66.210938 29.078125 60.867188 30.03125 55.777344 31.933594 C 46.738281 35.300781 38.796875 41.59375 33.488281 49.648438 C 28.546875 57.078125 25.914062 65.789062 25.914062 74.828125 C 25.914062 76.585938 26.023438 78.339844 26.207031 80.097656 C 27.339844 89.761719 31.402344 98.617188 37.992188 105.753906 C 42.417969 110.585938 47.984375 114.503906 54.023438 117.027344 L 54.753906 117.320312 C 60.097656 119.480469 65.808594 120.578125 71.664062 120.578125 C 78.175781 120.578125 84.472656 119.222656 90.328125 116.589844 C 96.039062 114.0625 101.089844 110.402344 105.371094 105.753906 C 111.960938 98.617188 115.984375 89.761719 117.121094 80.097656 C 117.339844 78.339844 117.414062 76.546875 117.414062 74.828125 C 117.414062 66.375 115.070312 58.101562 110.679688 50.929688 Z M 87.546875 109.414062 L 86.816406 107.21875 C 85.863281 104.472656 84.398438 101.800781 81.398438 101.800781 L 62.914062 101.800781 C 59.914062 101.800781 58.339844 104.328125 57.535156 107.21875 L 56.65625 109.855469 L 56.472656 109.78125 C 51.640625 107.695312 47.214844 104.546875 43.628906 100.632812 L 46.703125 97.847656 L 46.773438 97.777344 L 46.957031 97.554688 C 47.617188 96.75 47.871094 95.582031 47.507812 94.480469 L 43.917969 83.613281 C 43.261719 81.636719 42.164062 79.730469 40.039062 79.730469 L 33.929688 79.730469 C 33.890625 79.585938 33.890625 79.441406 33.855469 79.292969 C 33.671875 77.828125 33.597656 76.328125 33.597656 74.902344 C 33.597656 67.582031 35.648438 60.515625 39.566406 54.441406 L 42.492188 57.078125 C 43.445312 58.136719 44.796875 58.761719 46.335938 58.761719 C 47.835938 58.761719 49.191406 58.101562 50.140625 57.078125 L 50.179688 57.078125 L 59.328125 48.328125 L 59.695312 47.925781 C 60.316406 47.085938 60.574219 45.988281 60.207031 44.925781 L 58.304688 39.253906 C 58.339844 39.253906 58.375 39.214844 58.414062 39.214844 C 62.660156 37.640625 67.085938 36.875 71.625 36.875 C 76.785156 36.875 81.800781 37.898438 86.484375 39.875 C 86.59375 39.910156 86.667969 39.949219 86.777344 39.984375 L 85.132812 44.925781 C 84.765625 46.023438 85.023438 47.121094 85.644531 47.925781 L 86.011719 48.328125 L 95.160156 57.078125 L 95.195312 57.078125 C 96.148438 58.136719 97.503906 58.761719 99.039062 58.761719 C 100.539062 58.761719 101.894531 58.101562 102.882812 57.078125 L 104.492188 55.613281 C 107.933594 61.433594 109.726562 68.09375 109.726562 74.902344 C 109.726562 76.363281 109.652344 77.828125 109.46875 79.292969 C 109.46875 79.441406 109.433594 79.585938 109.398438 79.730469 L 103.613281 79.730469 C 101.457031 79.730469 100.320312 81.5625 99.734375 83.613281 L 96.113281 94.480469 C 95.746094 95.582031 96 96.679688 96.625 97.484375 L 96.988281 97.886719 L 99.773438 100.519531 C 99.773438 100.558594 99.734375 100.558594 99.734375 100.59375 C 96.257812 104.328125 92.160156 107.292969 87.546875 109.414062 Z M 87.546875 109.414062 " fill-opacity="1" fill-rule="nonzero"/></g><path fill="#100906" d="M 82.714844 64.175781 C 82.019531 62.199219 80.960938 60.296875 78.835938 60.296875 L 65.585938 60.296875 C 63.425781 60.296875 62.292969 62.128906 61.707031 64.175781 L 58.085938 75.046875 C 57.71875 76.144531 57.972656 77.242188 58.597656 78.085938 L 58.960938 78.488281 L 68.113281 87.234375 L 68.148438 87.234375 C 69.101562 88.261719 70.453125 88.917969 71.957031 88.917969 C 73.457031 88.917969 74.808594 88.261719 75.796875 87.234375 L 85.496094 78.453125 L 85.570312 78.378906 L 85.753906 78.160156 C 86.414062 77.351562 86.667969 76.183594 86.300781 75.046875 Z M 82.714844 64.175781 " fill-opacity="1" fill-rule="nonzero"/><g mask="url(#5234fdd168)"><g transform="matrix(1, 0, 0, 1, 29, 32)"><g clip-path="url(#3835765e36)"><g clip-path="url(#eb0050eaa6)"><path fill="#724c9f" d="M 42.664062 84.734375 C 36.917969 84.734375 31.464844 83.5625 26.484375 81.476562 C 20.886719 79.136719 15.871094 75.585938 11.808594 71.15625 C 5.953125 64.824219 2.074219 56.664062 1.046875 47.660156 C 0.867188 46.085938 0.753906 44.476562 0.753906 42.828125 C 0.753906 34.300781 3.28125 26.359375 7.671875 19.734375 C 12.539062 12.339844 19.679688 6.628906 28.097656 3.484375 C 32.632812 1.835938 37.539062 0.921875 42.664062 0.921875 " fill-opacity="1" fill-rule="nonzero"/></g></g></g></g></svg>