<svg xmlns="http://www.w3.org/2000/svg" xmlns:xlink="http://www.w3.org/1999/xlink" viewBox="0 0 32 32" width="60" height="60" style="border-color: rgba(187,187,187,1);border-width: 0;border-style: solid" filter="none">
    
    <g>
    <path d="M12.32 16.928c1.888 0.224 3.648 0.832 5.28 1.6 0.8 0.352 1.632 0.832 2.304 1.216 0.672 0.416 1.344 0.768 2.016 1.088l-4.128-8.16-0.896-1.536-3.072-5.408c-0.448-0.768-1.408-1.056-2.176-0.608s-1.024 1.408-0.576 2.176l3.392 5.984-0.864 0.768-5.344 3.040c1.344-0.288 2.752-0.32 4.064-0.16zM25.28 16.608c1.038-0.616 1.723-1.73 1.723-3.005 0-0.624-0.164-1.21-0.452-1.716l0.009 0.017c-0.616-1.038-1.73-1.723-3.005-1.723-0.624 0-1.21 0.164-1.716 0.452l0.017-0.009c-1.038 0.616-1.723 1.73-1.723 3.005 0 0.624 0.164 1.21 0.452 1.716l-0.009-0.017c0.616 1.038 1.73 1.723 3.005 1.723 0.624 0 1.21-0.164 1.716-0.452l-0.017 0.009zM31.776 19.168c-0.48 1.6-1.248 3.104-2.368 3.904-1.056 0.768-2.272 0.8-3.616 0.544-1.312-0.288-2.72-0.864-4.064-1.536-0.919-0.453-1.589-0.815-2.249-1.195l0.201 0.107c-0.565-0.349-1.308-0.764-2.067-1.153l-0.205-0.095c-1.632-0.736-3.392-1.344-5.28-1.568-1.888-0.256-3.904-0.096-5.728 0.64-1.824 0.704-3.36 1.952-4.448 3.424-1.024 1.472-1.76 3.136-1.952 4.832 2.048-2.688 4.64-4.64 7.36-5.088 2.688-0.512 5.504 0.32 8.224 1.6 0.736 0.32 1.312 0.64 2.112 1.056 0.768 0.416 1.568 0.8 2.4 1.12 1.664 0.64 3.456 1.152 5.44 1.184 0.96 0 2.016-0.16 2.976-0.544 0.992-0.416 1.888-1.12 2.464-1.952 1.12-1.728 1.216-3.616 0.8-5.28z" fill="rgba(64,149,229,1)"></path>
    </g>
  </svg>