<svg xmlns="http://www.w3.org/2000/svg" xmlns:xlink="http://www.w3.org/1999/xlink" width="500" zoomAndPan="magnify" viewBox="0 0 375 149.999998" height="200" preserveAspectRatio="xMidYMid meet" version="1.0"><defs><filter x="0%" y="0%" width="100%" height="100%" id="79fd2cb750"><feColorMatrix values="0 0 0 0 1 0 0 0 0 1 0 0 0 0 1 0 0 0 1 0" color-interpolation-filters="sRGB"/></filter><g/><clipPath id="74d9f3facd"><path d="M 43.992188 26.734375 L 133.242188 26.734375 L 133.242188 115.984375 L 43.992188 115.984375 Z M 43.992188 26.734375 " clip-rule="nonzero"/></clipPath><mask id="6c5f9bb2c0"><g filter="url(#79fd2cb750)"><rect x="-37.5" width="450" fill="#000000" y="-15" height="179.999997" fill-opacity="0.149"/></g></mask><clipPath id="9ebd9967a6"><path d="M 0.519531 0.238281 L 42 0.238281 L 42 82.558594 L 0.519531 82.558594 Z M 0.519531 0.238281 " clip-rule="nonzero"/></clipPath><clipPath id="dd1b5dba38"><rect x="0" width="43" y="0" height="83"/></clipPath></defs><rect x="-37.5" width="450" fill="#ffffff" y="-15" height="179.999997" fill-opacity="1"/><g fill="#908cf6" fill-opacity="1"><g transform="translate(149.316834, 81.06291)"><g><path d="M 9.5 -25.140625 L 9.5 -19.953125 L 13.53125 -19.953125 L 13.53125 -6.125 L 9.5 -6.125 L 9.5 1.359375 L 5.953125 1.359375 L 5.953125 -6.125 L 1.578125 -6.125 L 1.46875 -19.953125 L 5.953125 -19.953125 L 5.953125 -25.140625 Z M 14.5 -17.3125 L 16.6875 -17.3125 C 19.46875 -18.582031 21.40625 -19.644531 22.5 -20.5 L 14.53125 -20.5 L 14.53125 -24.5 L 28.171875 -24.5 C 28.210938 -24.125 28.234375 -23.765625 28.234375 -23.421875 C 28.234375 -20.609375 26.796875 -18.578125 23.921875 -17.328125 L 30.203125 -17.328125 C 30.203125 -17.328125 30.195312 -16.421875 30.1875 -14.609375 C 30.1875 -12.796875 30.148438 -10.914062 30.078125 -8.96875 C 30.015625 -7.03125 29.894531 -5.328125 29.71875 -3.859375 C 29.550781 -2.390625 29.320312 -1.3125 29.03125 -0.625 C 28.570312 0.175781 27.976562 0.707031 27.25 0.96875 C 26.519531 1.238281 25.835938 1.375 25.203125 1.375 C 25.191406 1.375 25.019531 1.367188 24.6875 1.359375 C 24.351562 1.359375 24.0625 1.332031 23.8125 1.28125 C 23.601562 1.195312 23.335938 0.890625 23.015625 0.359375 C 22.691406 -0.160156 22.398438 -0.691406 22.140625 -1.234375 C 21.878906 -1.773438 21.75 -2.046875 21.75 -2.046875 C 21.75 -2.046875 21.875 -2.035156 22.125 -2.015625 C 22.382812 -1.992188 22.5625 -1.984375 22.65625 -1.984375 C 23 -1.984375 23.390625 -2.035156 23.828125 -2.140625 C 24.265625 -2.242188 24.617188 -2.5 24.890625 -2.90625 C 25.035156 -3.175781 25.144531 -3.476562 25.21875 -3.8125 C 25.300781 -4.15625 25.351562 -4.726562 25.375 -5.53125 C 25.382812 -5.851562 25.390625 -6.253906 25.390625 -6.734375 C 22.972656 -3.640625 19.515625 -1.347656 15.015625 0.140625 L 12.640625 -1.8125 C 15.722656 -3.75 19.144531 -6.460938 22.90625 -9.953125 L 25.40625 -8.015625 C 25.40625 -8.347656 25.40625 -8.695312 25.40625 -9.0625 C 25.394531 -10.625 25.378906 -11.804688 25.359375 -12.609375 C 25.347656 -13.410156 25.34375 -13.8125 25.34375 -13.8125 L 20.875 -13.8125 L 22.796875 -11.984375 C 20.492188 -9.128906 17.878906 -7.472656 14.953125 -7.015625 L 13.53125 -9.1875 C 14.914062 -10.164062 16.695312 -11.703125 18.875 -13.796875 L 15.5 -13.796875 Z M 4.625 -14.875 L 5.953125 -14.875 L 5.953125 -16.421875 L 4.625 -16.421875 Z M 9.5 -14.875 L 10.890625 -14.875 L 10.890625 -16.421875 L 9.5 -16.421875 Z M 4.609375 -9.4375 C 5.003906 -9.4375 5.453125 -9.4375 5.953125 -9.4375 L 5.953125 -10.890625 L 4.625 -10.890625 Z M 9.5 -9.46875 L 10.890625 -9.46875 L 10.890625 -10.890625 L 9.5 -10.890625 Z M 9.5 -9.46875 "/></g></g></g><g fill="#908cf6" fill-opacity="1"><g transform="translate(181.013339, 81.06291)"><g><path d="M 13.265625 -25.734375 C 14.390625 -25.671875 15.515625 -25.617188 16.640625 -25.578125 C 17.773438 -25.535156 18.910156 -25.46875 20.046875 -25.375 L 17.953125 -23.546875 L 11.21875 -24.125 Z M 29.34375 -19.765625 L 2.421875 -19.765625 L 2.421875 -23.15625 L 29.34375 -23.15625 Z M 26.84375 -19.03125 L 26.84375 -11.875 L 5.359375 -11.875 L 5.359375 -19.03125 Z M 9.84375 -14.5625 L 22.328125 -14.5625 L 22.328125 -16.328125 L 9.84375 -16.328125 Z M 24.671875 -10.75 C 24.273438 -8.632812 22.675781 -7.140625 19.875 -6.265625 L 30.015625 -6.265625 L 30.015625 -3.3125 L 19.15625 -3.3125 C 19.113281 -2.695312 19.039062 -2.09375 18.9375 -1.5 C 18.863281 -1.0625 18.742188 -0.65625 18.578125 -0.28125 C 18.421875 0.09375 18.179688 0.421875 17.859375 0.703125 C 17.546875 0.992188 17.113281 1.234375 16.5625 1.421875 C 16.019531 1.617188 15.320312 1.765625 14.46875 1.859375 C 13.925781 1.910156 13.441406 1.941406 13.015625 1.953125 C 12.585938 1.972656 12.210938 1.984375 11.890625 1.984375 C 11.722656 1.984375 11.484375 1.976562 11.171875 1.96875 C 10.859375 1.96875 10.476562 1.953125 10.03125 1.921875 C 9.59375 1.890625 9.175781 1.851562 8.78125 1.8125 L 7.71875 -0.515625 C 10.28125 -0.617188 11.914062 -0.8125 12.625 -1.09375 C 13.332031 -1.375 13.726562 -1.734375 13.8125 -2.171875 C 13.875 -2.515625 13.910156 -2.894531 13.921875 -3.3125 L 1.6875 -3.3125 L 1.6875 -6.265625 L 13.6875 -6.265625 C 13.664062 -6.390625 13.640625 -6.507812 13.609375 -6.625 L 13.453125 -6.671875 L 18.296875 -8.40625 L 7.109375 -8.40625 L 7.109375 -10.78125 Z M 24.671875 -10.75 "/></g></g></g><g fill="#908cf6" fill-opacity="1"><g transform="translate(212.709844, 81.06291)"><g><path d="M 27.484375 -25.046875 L 27.484375 -21.203125 L 12.359375 -21.203125 L 12.359375 -25.046875 Z M 5.734375 -24.90625 C 5.734375 -24.90625 5.804688 -24.832031 5.953125 -24.6875 C 6.097656 -24.550781 6.289062 -24.359375 6.53125 -24.109375 C 6.769531 -23.859375 7.039062 -23.582031 7.34375 -23.28125 C 7.644531 -22.976562 7.953125 -22.664062 8.265625 -22.34375 C 8.585938 -22.019531 8.898438 -21.703125 9.203125 -21.390625 C 9.503906 -21.085938 9.773438 -20.804688 10.015625 -20.546875 C 10.253906 -20.296875 10.441406 -20.09375 10.578125 -19.9375 C 10.722656 -19.789062 10.796875 -19.707031 10.796875 -19.6875 C 10.773438 -19.65625 10.648438 -19.546875 10.421875 -19.359375 C 10.191406 -19.179688 9.90625 -18.960938 9.5625 -18.703125 C 9.226562 -18.453125 8.890625 -18.203125 8.546875 -17.953125 C 8.210938 -17.703125 7.929688 -17.488281 7.703125 -17.3125 C 7.472656 -17.144531 7.359375 -17.0625 7.359375 -17.0625 L 2.59375 -22.453125 Z M 23.75 -14.296875 C 26.28125 -12.441406 28.097656 -9.628906 29.203125 -5.859375 L 24.90625 -4.359375 L 23.75 -6.9375 C 21.164062 -5.769531 17.394531 -5.1875 12.4375 -5.1875 C 12.394531 -5.1875 12.351562 -5.1875 12.3125 -5.1875 L 11.5625 -8.890625 C 13.0625 -11.867188 14.078125 -13.878906 14.609375 -14.921875 L 10.984375 -14.921875 L 10.984375 -18.78125 L 29.453125 -18.78125 L 29.453125 -14.921875 L 19.234375 -14.921875 L 19.65625 -14.78125 L 17.078125 -9.71875 L 22.28125 -10.1875 L 21.015625 -13.03125 Z M 1.890625 -16.5625 L 8.640625 -16.71875 L 8.109375 -4.90625 C 9.460938 -4.863281 10.804688 -4.722656 12.140625 -4.484375 C 13.773438 -4.179688 15.550781 -3.820312 17.46875 -3.40625 C 19.25 -3.082031 20.863281 -2.894531 22.3125 -2.84375 C 23.769531 -2.789062 24.921875 -2.765625 25.765625 -2.765625 C 26.535156 -2.765625 27.421875 -2.785156 28.421875 -2.828125 C 29.429688 -2.878906 29.9375 -2.90625 29.9375 -2.90625 C 29.882812 -1.550781 29.859375 -0.578125 29.859375 0.015625 C 29.859375 0.109375 29.859375 0.3125 29.859375 0.625 C 29.867188 0.9375 29.875 1.09375 29.875 1.09375 C 29.875 1.09375 29.195312 1.125 27.84375 1.1875 C 26.488281 1.257812 25.332031 1.296875 24.375 1.296875 C 23.144531 1.296875 21.523438 1.25 19.515625 1.15625 C 17.503906 1.0625 15.347656 0.710938 13.046875 0.109375 C 10.816406 -0.484375 9.265625 -0.796875 8.390625 -0.828125 C 7.523438 -0.859375 6.953125 -0.875 6.671875 -0.875 C 5.722656 -0.875 4.9375 -0.796875 4.3125 -0.640625 C 3.695312 -0.484375 3.347656 -0.347656 3.265625 -0.234375 C 3.253906 -0.222656 3.242188 -0.21875 3.234375 -0.21875 C 3.179688 -0.21875 3.097656 -0.328125 2.984375 -0.546875 C 2.878906 -0.773438 2.753906 -1.085938 2.609375 -1.484375 C 2.460938 -1.878906 2.320312 -2.273438 2.1875 -2.671875 C 2.0625 -3.078125 1.957031 -3.421875 1.875 -3.703125 C 1.789062 -3.992188 1.75 -4.140625 1.75 -4.140625 C 2.519531 -4.335938 3.273438 -4.5 4.015625 -4.625 L 4.390625 -12.65625 L 2.09375 -12.484375 Z M 1.890625 -16.5625 "/></g></g></g><g fill="#908cf6" fill-opacity="1"><g transform="translate(244.406349, 81.06291)"><g><path d="M 15.8125 -19.046875 L 19.671875 -19.046875 C 19.722656 -20.035156 19.75 -21.039062 19.75 -22.0625 C 19.75 -22.957031 19.726562 -23.859375 19.6875 -24.765625 L 23.59375 -24.6875 C 23.789062 -22.738281 23.890625 -20.863281 23.890625 -19.0625 L 30.1875 -19.0625 C 30.1875 -19.0625 30.191406 -18.679688 30.203125 -17.921875 C 30.210938 -17.160156 30.21875 -16.609375 30.21875 -16.265625 C 30.21875 -14.796875 30.175781 -12.203125 30.09375 -8.484375 C 30.019531 -4.773438 29.734375 -2.351562 29.234375 -1.21875 C 28.796875 0 28.226562 0.613281 27.53125 0.625 C 26.832031 0.644531 26.363281 0.65625 26.125 0.65625 C 25.476562 0.65625 25.070312 0.628906 24.90625 0.578125 C 24.664062 0.421875 24.316406 -0.1875 23.859375 -1.25 C 23.410156 -2.3125 23.1875 -2.84375 23.1875 -2.84375 C 23.1875 -2.84375 23.441406 -2.878906 23.953125 -2.953125 C 24.472656 -3.035156 24.804688 -3.101562 24.953125 -3.15625 C 25.109375 -3.21875 25.242188 -3.335938 25.359375 -3.515625 C 25.484375 -3.890625 25.546875 -5.269531 25.546875 -7.65625 C 25.546875 -8.289062 25.53125 -9.726562 25.5 -11.96875 C 25.476562 -14.21875 25.46875 -15.34375 25.46875 -15.34375 L 23.75 -15.34375 C 23.269531 -9.0625 21.5 -3.613281 18.4375 1 L 15.828125 -1.265625 C 17.628906 -5.742188 18.804688 -10.429688 19.359375 -15.328125 L 15.8125 -15.328125 Z M 13.921875 -18.6875 L 3.171875 -18.6875 L 3.171875 -22.953125 L 13.921875 -22.953125 Z M 15.703125 -11.84375 L 12.3125 -11.84375 C 13.789062 -8.9375 14.835938 -6.082031 15.453125 -3.28125 L 11.734375 -1.75 C 11.640625 -2.175781 11.539062 -2.617188 11.4375 -3.078125 C 8.5 -2.378906 6.367188 -2.03125 5.046875 -2.03125 C 4.859375 -2.03125 4.691406 -2.035156 4.546875 -2.046875 C 3.140625 -2.472656 2.4375 -3.207031 2.4375 -4.25 C 2.4375 -4.550781 2.492188 -4.878906 2.609375 -5.234375 L 4.875 -11.84375 L 1.453125 -11.84375 L 1.453125 -16 L 15.703125 -16 Z M 7.171875 -6.328125 L 10.71875 -6.328125 C 10.382812 -7.765625 10.050781 -9.253906 9.71875 -10.796875 L 11.375 -11.84375 L 8.6875 -11.84375 Z M 7.171875 -6.328125 "/></g></g></g><g fill="#908cf6" fill-opacity="1"><g transform="translate(276.087011, 81.06291)"><g><path d="M 6.953125 -24.953125 L 10.375 -20.5625 C 10.375 -20.5625 10.171875 -20.257812 9.765625 -19.65625 C 9.359375 -19.050781 8.78125 -18.34375 8.03125 -17.53125 C 7.28125 -16.726562 6.378906 -15.992188 5.328125 -15.328125 C 4.285156 -14.660156 3.132812 -14.238281 1.875 -14.0625 L 0.375 -17.5 C 0.375 -17.5 0.734375 -17.835938 1.453125 -18.515625 C 2.171875 -19.203125 3.03125 -20.109375 4.03125 -21.234375 C 5.039062 -22.359375 6.015625 -23.597656 6.953125 -24.953125 Z M 3.453125 -17.46875 L 7.484375 -18.078125 L 7.484375 1.1875 L 3.453125 1.1875 Z M 9.578125 -8.53125 C 17.160156 -4.257812 24.398438 -2.113281 31.296875 -2.09375 L 31.140625 1.296875 C 30.398438 1.328125 29.671875 1.34375 28.953125 1.34375 C 20.929688 1.34375 14.269531 -0.769531 8.96875 -5 Z M 16.109375 -17.546875 L 16.125 -17.546875 C 16.113281 -17.523438 16.109375 -17.503906 16.109375 -17.484375 L 16.109375 -17.453125 L 16.09375 -17.453125 C 15.488281 -14.878906 13.863281 -13.003906 11.21875 -11.828125 L 9.84375 -13.265625 C 10.445312 -14.410156 11.21875 -15.804688 12.15625 -17.453125 L 9.9375 -17.453125 L 9.9375 -21.578125 L 16.109375 -21.578125 Z M 16.1875 -9.453125 C 15.582031 -3.910156 13.5625 -0.347656 10.125 1.234375 L 8.5625 -0.4375 C 10.21875 -2.75 11.601562 -5.753906 12.71875 -9.453125 L 9.65625 -9.453125 L 9.65625 -13.34375 L 16.1875 -13.34375 Z M 16.953125 -8.859375 L 30.65625 -8.859375 L 30.65625 -5.875 L 16.953125 -5.875 Z M 20.796875 -25.109375 L 25.015625 -25.109375 L 25.015625 -3.65625 L 20.796875 -3.65625 Z M 30.984375 -17.5 L 16.953125 -17.5 L 16.953125 -19.953125 L 30.984375 -19.953125 Z M 28.859375 -14.15625 L 17.4375 -14.15625 L 17.4375 -16.4375 L 28.859375 -16.4375 Z M 29.875 -23.71875 L 29.875 -14.15625 L 26.734375 -14.15625 L 26.734375 -21.203125 L 17.4375 -21.203125 L 17.4375 -23.71875 Z M 17.3125 -12.75 L 29.59375 -12.75 L 29.59375 -10.21875 L 17.3125 -10.21875 Z M 17.3125 -12.75 "/></g></g></g><g fill="#908cf6" fill-opacity="1"><g transform="translate(307.783515, 81.06291)"><g><path d="M 13.34375 -25.46875 L 21.40625 -25.03125 L 20.5 -23.109375 L 12.6875 -23.578125 Z M 29.859375 -19.109375 L 8.3125 -19.109375 C 7.675781 -9.835938 6.023438 -2.898438 3.359375 1.703125 L 1.203125 -1.6875 C 2.847656 -7.289062 3.726562 -13.5 3.84375 -20.3125 L 3.859375 -20.3125 L 3.859375 -22.71875 L 29.859375 -22.71875 Z M 15.859375 -18.359375 L 20.953125 -18.234375 L 20.953125 -17.671875 L 28.5 -17.671875 L 28.5 -14.171875 L 30.34375 -14.171875 L 30.34375 -11.65625 L 28.5 -11.65625 L 28.5 -8.3125 L 24.453125 -8.3125 L 24.453125 -8.328125 L 20.953125 -8.328125 L 20.953125 -2.0625 C 20.953125 -2.0625 20.953125 -1.992188 20.953125 -1.859375 C 20.960938 -1.722656 20.96875 -1.648438 20.96875 -1.640625 C 20.96875 -1.398438 20.898438 -1.101562 20.765625 -0.75 C 20.628906 -0.394531 20.375 -0.0507812 20 0.28125 C 19.625 0.625 19.066406 0.894531 18.328125 1.09375 C 17.484375 1.28125 16.703125 1.375 15.984375 1.375 C 15.847656 1.375 15.539062 1.359375 15.0625 1.328125 C 14.59375 1.304688 14.101562 1.226562 13.59375 1.09375 C 13.09375 0.957031 12.84375 0.890625 12.84375 0.890625 L 12.484375 -1.375 C 11.378906 -0.414062 10.109375 0.265625 8.671875 0.671875 L 6.515625 -2.25 C 8.628906 -3.21875 10.457031 -4.269531 12 -5.40625 L 14.328125 -3.40625 C 13.773438 -2.632812 13.164062 -1.957031 12.5 -1.375 L 15.921875 -1.984375 L 15.890625 -8.328125 L 9.171875 -8.328125 L 9.171875 -10.375 L 15.890625 -10.375 L 15.890625 -11.65625 L 8.8125 -11.65625 L 8.8125 -14.171875 L 15.875 -14.171875 L 15.875 -15.265625 L 9.25 -15.265625 L 9.25 -17.671875 L 15.859375 -17.671875 Z M 20.953125 -14.171875 L 24.453125 -14.171875 L 24.453125 -15.265625 L 20.953125 -15.265625 Z M 20.953125 -10.375 L 24.453125 -10.375 L 24.453125 -11.65625 L 20.953125 -11.65625 Z M 9.640625 -7.96875 C 10.640625 -7.96875 11.644531 -7.882812 12.65625 -7.71875 C 13.675781 -7.5625 14.597656 -7.363281 15.421875 -7.125 L 15.046875 -4.5625 L 9.421875 -6.234375 Z M 27.03125 -7.890625 L 27.890625 -5.875 C 27.234375 -5.5625 26.59375 -5.367188 25.96875 -5.296875 C 25.34375 -5.234375 24.773438 -5.203125 24.265625 -5.203125 C 23.671875 -5.203125 23.007812 -5.226562 22.28125 -5.28125 L 21.625 -6.984375 Z M 21.359375 -2.84375 L 23 -4.828125 C 23 -4.828125 23.394531 -4.722656 24.1875 -4.515625 C 24.988281 -4.304688 25.957031 -3.957031 27.09375 -3.46875 C 28.238281 -2.976562 29.363281 -2.335938 30.46875 -1.546875 L 27.0625 1.1875 C 24.769531 -0.59375 22.867188 -1.9375 21.359375 -2.84375 Z M 21.359375 -2.84375 "/></g></g></g><g fill="#908cf6" fill-opacity="1"><g transform="translate(149.316834, 114.368128)"><g><path d="M 2.40625 -3.078125 L 1.59375 -3.078125 C 1.632812 -2.835938 1.65625 -2.601562 1.65625 -2.375 L 1.65625 0 L 0.828125 0 L 0.828125 -6.546875 L 1.65625 -6.546875 L 1.65625 -4.5 C 1.65625 -4.238281 1.632812 -3.988281 1.59375 -3.75 L 2.390625 -3.75 L 4.375 -6.546875 L 5.296875 -6.546875 L 3.390625 -3.828125 C 3.304688 -3.710938 3.1875 -3.578125 3.03125 -3.421875 L 3.03125 -3.390625 C 3.207031 -3.222656 3.34375 -3.070312 3.4375 -2.9375 L 5.421875 0 L 4.484375 0 Z M 2.40625 -3.078125 "/></g></g></g><g fill="#908cf6" fill-opacity="1"><g transform="translate(157.485859, 114.368128)"><g><path d="M 4.796875 -0.6875 L 4.84375 -0.046875 C 4.257812 -0.00390625 3.320312 0.015625 2.03125 0.015625 C 1.644531 0.015625 1.335938 -0.0859375 1.109375 -0.296875 C 0.890625 -0.503906 0.773438 -0.78125 0.765625 -1.125 L 0.765625 -5.421875 C 0.773438 -5.765625 0.890625 -6.035156 1.109375 -6.234375 C 1.335938 -6.441406 1.644531 -6.546875 2.03125 -6.546875 C 3.320312 -6.546875 4.257812 -6.53125 4.84375 -6.5 L 4.796875 -5.84375 L 2.171875 -5.84375 C 1.796875 -5.84375 1.609375 -5.632812 1.609375 -5.21875 L 1.609375 -3.796875 L 4.421875 -3.796875 L 4.421875 -3.125 L 1.609375 -3.125 L 1.609375 -1.328125 C 1.609375 -0.898438 1.796875 -0.6875 2.171875 -0.6875 Z M 4.796875 -0.6875 "/></g></g></g><g fill="#908cf6" fill-opacity="1"><g transform="translate(165.360766, 114.368128)"><g><path d="M 4.796875 -0.6875 L 4.84375 -0.046875 C 4.257812 -0.00390625 3.320312 0.015625 2.03125 0.015625 C 1.644531 0.015625 1.335938 -0.0859375 1.109375 -0.296875 C 0.890625 -0.503906 0.773438 -0.78125 0.765625 -1.125 L 0.765625 -5.421875 C 0.773438 -5.765625 0.890625 -6.035156 1.109375 -6.234375 C 1.335938 -6.441406 1.644531 -6.546875 2.03125 -6.546875 C 3.320312 -6.546875 4.257812 -6.53125 4.84375 -6.5 L 4.796875 -5.84375 L 2.171875 -5.84375 C 1.796875 -5.84375 1.609375 -5.632812 1.609375 -5.21875 L 1.609375 -3.796875 L 4.421875 -3.796875 L 4.421875 -3.125 L 1.609375 -3.125 L 1.609375 -1.328125 C 1.609375 -0.898438 1.796875 -0.6875 2.171875 -0.6875 Z M 4.796875 -0.6875 "/></g></g></g><g fill="#908cf6" fill-opacity="1"><g transform="translate(173.235671, 114.368128)"><g><path d="M 0.828125 0 L 0.828125 -6.546875 C 1.359375 -6.597656 2.109375 -6.625 3.078125 -6.625 C 3.867188 -6.625 4.414062 -6.476562 4.71875 -6.1875 C 5.019531 -5.90625 5.171875 -5.367188 5.171875 -4.578125 C 5.171875 -3.785156 5.023438 -3.242188 4.734375 -2.953125 C 4.441406 -2.671875 3.921875 -2.53125 3.171875 -2.53125 C 2.648438 -2.53125 2.144531 -2.5625 1.65625 -2.625 L 1.65625 0 Z M 1.65625 -3.25 L 3.0625 -3.25 C 3.550781 -3.257812 3.882812 -3.351562 4.0625 -3.53125 C 4.238281 -3.707031 4.328125 -4.054688 4.328125 -4.578125 C 4.328125 -5.097656 4.234375 -5.445312 4.046875 -5.625 C 3.867188 -5.8125 3.539062 -5.90625 3.0625 -5.90625 C 2.375 -5.90625 1.90625 -5.90625 1.65625 -5.90625 Z M 1.65625 -3.25 "/></g></g></g><g fill="#908cf6" fill-opacity="1"><g transform="translate(181.395213, 114.368128)"><g><path d="M 4.703125 0 L 4.609375 -0.6875 C 4.054688 -0.144531 3.40625 0.125 2.65625 0.125 C 1.925781 0.125 1.398438 -0.144531 1.078125 -0.6875 C 0.753906 -1.238281 0.59375 -2.109375 0.59375 -3.296875 C 0.59375 -4.578125 0.789062 -5.457031 1.1875 -5.9375 C 1.582031 -6.425781 2.289062 -6.671875 3.3125 -6.671875 C 4.007812 -6.671875 4.617188 -6.601562 5.140625 -6.46875 L 5.0625 -5.84375 C 4.53125 -5.894531 3.960938 -5.921875 3.359375 -5.921875 C 2.867188 -5.921875 2.492188 -5.851562 2.234375 -5.71875 C 1.972656 -5.59375 1.78125 -5.335938 1.65625 -4.953125 C 1.53125 -4.566406 1.46875 -3.992188 1.46875 -3.234375 C 1.46875 -2.265625 1.570312 -1.582031 1.78125 -1.1875 C 1.988281 -0.800781 2.359375 -0.609375 2.890625 -0.609375 C 3.378906 -0.609375 3.914062 -0.820312 4.5 -1.25 L 4.5 -3.78125 L 5.3125 -3.78125 L 5.3125 0 Z M 4.703125 0 "/></g></g></g><g fill="#908cf6" fill-opacity="1"><g transform="translate(189.915293, 114.368128)"><g><path d="M 1.140625 -5.921875 C 1.523438 -6.421875 2.195312 -6.671875 3.15625 -6.671875 C 4.125 -6.671875 4.796875 -6.421875 5.171875 -5.921875 C 5.554688 -5.421875 5.75 -4.535156 5.75 -3.265625 C 5.75 -1.992188 5.554688 -1.109375 5.171875 -0.609375 C 4.796875 -0.117188 4.125 0.125 3.15625 0.125 C 2.195312 0.125 1.523438 -0.117188 1.140625 -0.609375 C 0.765625 -1.109375 0.578125 -1.992188 0.578125 -3.265625 C 0.578125 -4.535156 0.765625 -5.421875 1.140625 -5.921875 Z M 4.5 -5.34375 C 4.257812 -5.726562 3.816406 -5.921875 3.171875 -5.921875 C 2.523438 -5.921875 2.078125 -5.726562 1.828125 -5.34375 C 1.578125 -4.957031 1.453125 -4.265625 1.453125 -3.265625 C 1.453125 -2.273438 1.578125 -1.585938 1.828125 -1.203125 C 2.078125 -0.816406 2.523438 -0.625 3.171875 -0.625 C 3.816406 -0.625 4.257812 -0.816406 4.5 -1.203125 C 4.75 -1.585938 4.875 -2.273438 4.875 -3.265625 C 4.875 -4.265625 4.75 -4.957031 4.5 -5.34375 Z M 4.5 -5.34375 "/></g></g></g><g fill="#908cf6" fill-opacity="1"><g transform="translate(198.813817, 114.368128)"><g/></g></g><g fill="#908cf6" fill-opacity="1"><g transform="translate(203.491353, 114.368128)"><g><path d="M 4.984375 -0.734375 L 5.0625 -0.109375 C 4.539062 0.0351562 3.90625 0.109375 3.15625 0.109375 C 2.207031 0.109375 1.539062 -0.140625 1.15625 -0.640625 C 0.769531 -1.148438 0.578125 -2.023438 0.578125 -3.265625 C 0.578125 -4.515625 0.769531 -5.390625 1.15625 -5.890625 C 1.539062 -6.398438 2.207031 -6.65625 3.15625 -6.65625 C 3.820312 -6.65625 4.414062 -6.59375 4.9375 -6.46875 L 4.84375 -5.828125 C 4.28125 -5.890625 3.71875 -5.921875 3.15625 -5.921875 C 2.507812 -5.921875 2.0625 -5.726562 1.8125 -5.34375 C 1.570312 -4.957031 1.453125 -4.265625 1.453125 -3.265625 C 1.453125 -2.273438 1.570312 -1.585938 1.8125 -1.203125 C 2.0625 -0.816406 2.507812 -0.625 3.15625 -0.625 C 3.882812 -0.625 4.492188 -0.660156 4.984375 -0.734375 Z M 4.984375 -0.734375 "/></g></g></g><g fill="#908cf6" fill-opacity="1"><g transform="translate(211.461141, 114.368128)"><g><path d="M 1.625 -6.546875 L 1.625 -1.328125 C 1.625 -0.910156 1.835938 -0.703125 2.265625 -0.703125 L 4.625 -0.703125 L 4.671875 -0.0625 C 4.117188 -0.0078125 3.273438 0.015625 2.140625 0.015625 C 1.253906 0.015625 0.8125 -0.394531 0.8125 -1.21875 L 0.8125 -6.546875 Z M 1.625 -6.546875 "/></g></g></g><g fill="#908cf6" fill-opacity="1"><g transform="translate(218.899616, 114.368128)"><g><path d="M 5.53125 -6.546875 L 5.53125 -2.5 C 5.53125 -1.550781 5.351562 -0.875 5 -0.46875 C 4.65625 -0.0703125 4.054688 0.125 3.203125 0.125 C 2.316406 0.125 1.691406 -0.0703125 1.328125 -0.46875 C 0.960938 -0.875 0.78125 -1.550781 0.78125 -2.5 L 0.78125 -6.546875 L 1.609375 -6.546875 L 1.609375 -2.5 C 1.609375 -1.800781 1.722656 -1.3125 1.953125 -1.03125 C 2.179688 -0.757812 2.582031 -0.625 3.15625 -0.625 C 3.726562 -0.625 4.128906 -0.757812 4.359375 -1.03125 C 4.585938 -1.3125 4.703125 -1.800781 4.703125 -2.5 L 4.703125 -6.546875 Z M 5.53125 -6.546875 "/></g></g></g><g fill="#908cf6" fill-opacity="1"><g transform="translate(227.780224, 114.368128)"><g><path d="M 4.015625 -3.421875 L 4.015625 -3.375 C 4.492188 -3.332031 4.832031 -3.164062 5.03125 -2.875 C 5.226562 -2.59375 5.328125 -2.175781 5.328125 -1.625 C 5.328125 -0.96875 5.171875 -0.519531 4.859375 -0.28125 C 4.554688 -0.0390625 4.019531 0.078125 3.25 0.078125 C 2.195312 0.078125 1.390625 0.0507812 0.828125 0 L 0.828125 -6.546875 C 1.328125 -6.597656 2.035156 -6.625 2.953125 -6.625 C 3.765625 -6.625 4.328125 -6.503906 4.640625 -6.265625 C 4.960938 -6.023438 5.125 -5.570312 5.125 -4.90625 C 5.125 -4.4375 5.035156 -4.078125 4.859375 -3.828125 C 4.679688 -3.585938 4.398438 -3.453125 4.015625 -3.421875 Z M 1.640625 -3.703125 L 3.046875 -3.703125 C 3.535156 -3.710938 3.867188 -3.789062 4.046875 -3.9375 C 4.234375 -4.09375 4.328125 -4.382812 4.328125 -4.8125 C 4.328125 -5.25 4.226562 -5.539062 4.03125 -5.6875 C 3.832031 -5.832031 3.457031 -5.90625 2.90625 -5.90625 L 1.640625 -5.90625 Z M 1.640625 -3.078125 L 1.640625 -0.640625 C 1.898438 -0.640625 2.390625 -0.640625 3.109375 -0.640625 C 3.640625 -0.640625 4 -0.710938 4.1875 -0.859375 C 4.382812 -1.015625 4.484375 -1.320312 4.484375 -1.78125 C 4.484375 -2.269531 4.378906 -2.601562 4.171875 -2.78125 C 3.972656 -2.957031 3.597656 -3.054688 3.046875 -3.078125 Z M 1.640625 -3.078125 "/></g></g></g><path fill="#ffffff" d="M 129.492188 71.359375 C 129.492188 72.964844 129.386719 74.535156 129.207031 76.070312 C 128.207031 84.851562 124.425781 92.816406 118.710938 98.992188 C 114.964844 103.097656 110.394531 106.417969 105.289062 108.664062 C 100.183594 110.984375 94.542969 112.234375 88.582031 112.234375 C 82.976562 112.234375 77.65625 111.09375 72.800781 109.058594 C 67.339844 106.773438 62.449219 103.308594 58.484375 98.992188 C 52.773438 92.816406 48.988281 84.851562 47.992188 76.070312 C 47.8125 74.535156 47.703125 72.964844 47.703125 71.359375 C 47.703125 63.039062 50.167969 55.292969 54.453125 48.832031 C 59.199219 41.621094 66.160156 36.050781 74.371094 32.980469 C 78.835938 31.375 83.617188 30.480469 88.617188 30.480469 C 94.292969 30.480469 99.683594 31.625 104.574219 33.730469 C 112.429688 37.085938 119.035156 42.796875 123.460938 50.011719 C 127.28125 56.222656 129.492188 63.539062 129.492188 71.359375 Z M 129.492188 71.359375 " fill-opacity="1" fill-rule="nonzero"/><g clip-path="url(#74d9f3facd)"><path fill="#100906" d="M 126.671875 48.046875 C 121.855469 40.191406 114.535156 33.875 106.074219 30.304688 C 100.503906 27.910156 94.648438 26.734375 88.617188 26.734375 C 83.296875 26.734375 78.085938 27.660156 73.125 29.519531 C 64.304688 32.804688 56.558594 38.941406 51.382812 46.796875 C 46.5625 54.042969 43.992188 62.539062 43.992188 71.359375 C 43.992188 73.074219 44.097656 74.785156 44.277344 76.5 C 45.382812 85.925781 49.347656 94.5625 55.773438 101.523438 C 60.09375 106.238281 65.519531 110.058594 71.410156 112.519531 L 72.125 112.804688 C 77.335938 114.914062 82.90625 115.984375 88.617188 115.984375 C 94.972656 115.984375 101.113281 114.664062 106.824219 112.09375 C 112.394531 109.628906 117.320312 106.058594 121.496094 101.523438 C 127.921875 94.5625 131.851562 85.925781 132.957031 76.5 C 133.171875 74.785156 133.242188 73.035156 133.242188 71.359375 C 133.242188 63.113281 130.957031 55.042969 126.671875 48.046875 Z M 104.109375 105.09375 L 103.398438 102.953125 C 102.46875 100.277344 101.039062 97.667969 98.113281 97.667969 L 80.085938 97.667969 C 77.15625 97.667969 75.621094 100.132812 74.835938 102.953125 L 73.980469 105.523438 L 73.800781 105.453125 C 69.089844 103.417969 64.769531 100.347656 61.269531 96.527344 L 64.269531 93.8125 L 64.339844 93.742188 L 64.519531 93.527344 C 65.164062 92.742188 65.410156 91.601562 65.054688 90.53125 L 61.554688 79.925781 C 60.914062 78 59.84375 76.144531 57.773438 76.144531 L 51.808594 76.144531 C 51.773438 76 51.773438 75.855469 51.738281 75.714844 C 51.558594 74.285156 51.488281 72.824219 51.488281 71.429688 C 51.488281 64.289062 53.488281 57.398438 57.308594 51.472656 L 60.164062 54.042969 C 61.09375 55.078125 62.414062 55.6875 63.914062 55.6875 C 65.375 55.6875 66.695312 55.042969 67.625 54.042969 L 67.660156 54.042969 L 76.585938 45.511719 L 76.941406 45.121094 C 77.550781 44.296875 77.800781 43.226562 77.441406 42.191406 L 75.585938 36.660156 C 75.621094 36.660156 75.65625 36.621094 75.695312 36.621094 C 79.835938 35.085938 84.15625 34.339844 88.582031 34.339844 C 93.613281 34.339844 98.507812 35.335938 103.074219 37.265625 C 103.183594 37.300781 103.253906 37.335938 103.359375 37.371094 L 101.753906 42.191406 C 101.398438 43.261719 101.648438 44.332031 102.253906 45.121094 L 102.613281 45.511719 L 111.535156 54.042969 L 111.570312 54.042969 C 112.5 55.078125 113.820312 55.6875 115.320312 55.6875 C 116.785156 55.6875 118.105469 55.042969 119.070312 54.042969 L 120.640625 52.617188 C 123.996094 58.292969 125.746094 64.789062 125.746094 71.429688 C 125.746094 72.859375 125.671875 74.285156 125.496094 75.714844 C 125.496094 75.855469 125.460938 76 125.421875 76.144531 L 119.78125 76.144531 C 117.675781 76.144531 116.570312 77.925781 116 79.925781 L 112.464844 90.53125 C 112.109375 91.601562 112.359375 92.671875 112.964844 93.457031 L 113.320312 93.851562 L 116.035156 96.421875 C 116.035156 96.457031 116 96.457031 116 96.492188 C 112.605469 100.132812 108.609375 103.023438 104.109375 105.09375 Z M 104.109375 105.09375 " fill-opacity="1" fill-rule="nonzero"/></g><path fill="#100906" d="M 99.398438 60.96875 C 98.71875 59.042969 97.683594 57.1875 95.613281 57.1875 L 82.691406 57.1875 C 80.585938 57.1875 79.476562 58.972656 78.90625 60.96875 L 75.371094 71.574219 C 75.015625 72.644531 75.265625 73.714844 75.871094 74.535156 L 76.230469 74.929688 L 85.152344 83.460938 L 85.191406 83.460938 C 86.117188 84.460938 87.4375 85.101562 88.902344 85.101562 C 90.367188 85.101562 91.6875 84.460938 92.652344 83.460938 L 102.113281 74.894531 L 102.183594 74.820312 L 102.363281 74.609375 C 103.003906 73.820312 103.253906 72.679688 102.898438 71.574219 Z M 99.398438 60.96875 " fill-opacity="1" fill-rule="nonzero"/><g mask="url(#6c5f9bb2c0)"><g transform="matrix(1, 0, 0, 1, 47, 30)"><g clip-path="url(#dd1b5dba38)"><g clip-path="url(#9ebd9967a6)"><path fill="#724c9f" d="M 41.617188 82.234375 C 36.011719 82.234375 30.691406 81.09375 25.835938 79.058594 C 20.375 76.773438 15.484375 73.308594 11.523438 68.992188 C 5.808594 62.816406 2.027344 54.851562 1.027344 46.070312 C 0.847656 44.535156 0.742188 42.964844 0.742188 41.359375 C 0.742188 33.039062 3.203125 25.292969 7.488281 18.832031 C 12.234375 11.621094 19.199219 6.050781 27.410156 2.980469 C 31.835938 1.375 36.617188 0.480469 41.617188 0.480469 " fill-opacity="1" fill-rule="nonzero"/></g></g></g></g><g fill="#908cf6" fill-opacity="1"><g transform="translate(149.316834, 42.842425)"><g><path d="M 1.28125 -14.421875 L 9.59375 -14.421875 L 9.59375 -6.828125 L 3.609375 -6.828125 L 3.609375 -3.234375 L 6.3125 -4.25 L 6.75 -2.65625 C 5.53125 -1.351562 4.476562 -0.566406 3.59375 -0.296875 C 3.539062 -0.296875 3.5 -0.296875 3.46875 -0.296875 C 2.007812 -0.296875 1.28125 -0.738281 1.28125 -1.625 Z M 12.984375 0.265625 L 10.59375 0.265625 L 10.59375 -14.171875 L 17.5625 -14.125 C 17.5625 -14.125 17.5625 -13.835938 17.5625 -13.265625 C 17.570312 -12.691406 17.578125 -12.265625 17.578125 -11.984375 C 17.578125 -11.003906 17.554688 -9.457031 17.515625 -7.34375 C 17.484375 -5.226562 17.34375 -3.9375 17.09375 -3.46875 C 16.601562 -2.5625 15.835938 -2.109375 14.796875 -2.109375 C 14.410156 -2.109375 13.988281 -2.171875 13.53125 -2.296875 C 13.457031 -3.703125 13.421875 -4.40625 13.421875 -4.40625 C 13.492188 -4.40625 13.5625 -4.40625 13.625 -4.40625 C 14.382812 -4.40625 14.816406 -4.617188 14.921875 -5.046875 C 15.023438 -5.484375 15.078125 -6.59375 15.078125 -8.375 C 15.078125 -8.476562 15.078125 -9.046875 15.078125 -10.078125 C 15.078125 -11.117188 15.078125 -11.640625 15.078125 -11.640625 L 12.984375 -11.671875 Z M 3.609375 -11.34375 L 7.34375 -11.34375 L 7.34375 -12.21875 L 3.609375 -12.21875 Z M 3.609375 -8.828125 C 4.054688 -8.828125 4.570312 -8.828125 5.15625 -8.828125 C 6.613281 -8.835938 7.34375 -8.84375 7.34375 -8.84375 L 7.34375 -9.6875 L 3.609375 -9.6875 Z M 5.375 -5.421875 L 6.796875 -6.640625 C 8.398438 -5.566406 9.523438 -4.441406 10.171875 -3.265625 L 8.34375 -1.578125 C 7.625 -2.742188 6.632812 -4.023438 5.375 -5.421875 Z M 5.375 -5.421875 "/></g></g></g><g fill="#908cf6" fill-opacity="1"><g transform="translate(168.185682, 42.842425)"><g><path d="M 3.984375 -13.71875 L 4.609375 -14.890625 C 5.640625 -14.742188 6.601562 -14.472656 7.5 -14.078125 L 6.78125 -12.859375 C 5.800781 -13.109375 4.867188 -13.394531 3.984375 -13.71875 Z M 14.90625 -14.640625 L 17.75 -14.109375 L 17.75 -1.078125 C 17.75 -1.078125 17.71875 -1 17.65625 -0.84375 C 17.59375 -0.695312 17.472656 -0.519531 17.296875 -0.3125 C 17.117188 -0.113281 16.863281 0.0703125 16.53125 0.25 C 16.195312 0.425781 15.851562 0.53125 15.5 0.5625 C 15.144531 0.601562 14.875 0.625 14.6875 0.625 C 14.269531 0.625 13.796875 0.578125 13.265625 0.484375 L 12.328125 -2.109375 C 12.328125 -2.109375 12.515625 -2.117188 12.890625 -2.140625 C 13.265625 -2.171875 13.648438 -2.234375 14.046875 -2.328125 C 14.453125 -2.421875 14.734375 -2.5625 14.890625 -2.75 C 14.910156 -2.800781 14.929688 -2.894531 14.953125 -3.03125 C 14.972656 -3.175781 14.988281 -3.363281 15 -3.59375 C 15.007812 -3.832031 15.015625 -4.101562 15.015625 -4.40625 C 15.023438 -4.707031 15.03125 -5.035156 15.03125 -5.390625 C 15.03125 -5.742188 15.03125 -6.117188 15.03125 -6.515625 C 15.03125 -6.910156 15.023438 -7.316406 15.015625 -7.734375 C 15.015625 -8.148438 15.007812 -8.566406 15 -8.984375 C 15 -9.398438 14.992188 -9.8125 14.984375 -10.21875 C 14.972656 -10.625 14.960938 -11.015625 14.953125 -11.390625 C 14.941406 -11.765625 14.929688 -12.117188 14.921875 -12.453125 C 14.921875 -12.785156 14.914062 -13.085938 14.90625 -13.359375 C 14.90625 -13.628906 14.90625 -13.863281 14.90625 -14.0625 C 14.90625 -14.257812 14.90625 -14.40625 14.90625 -14.5 C 14.90625 -14.59375 14.90625 -14.640625 14.90625 -14.640625 Z M 11.515625 -12.875 L 13.890625 -12.65625 L 13.890625 -3.640625 L 11.515625 -3.421875 Z M 10.6875 -10.53125 L 8.03125 -10.53125 L 9.484375 -9.421875 C 7.503906 -6.140625 5 -3.957031 1.96875 -2.875 L 1.109375 -4.171875 C 2.378906 -5.078125 3.5 -5.984375 4.46875 -6.890625 C 4 -6.765625 3.566406 -6.703125 3.171875 -6.703125 C 3.160156 -6.703125 3.15625 -6.703125 3.15625 -6.703125 C 2.195312 -6.703125 1.71875 -7.226562 1.71875 -8.28125 L 3.0625 -10.53125 L 1.28125 -10.53125 L 1.28125 -12.671875 L 10.6875 -12.671875 Z M 4.140625 -8.75 L 6.28125 -8.8125 C 6.757812 -9.382812 7.171875 -9.957031 7.515625 -10.53125 L 5.09375 -10.53125 Z M 9.515625 0.703125 L 7.328125 -1.796875 C 5.859375 -0.742188 4.101562 0.0976562 2.0625 0.734375 L 1.140625 -0.5625 C 5.421875 -3.019531 8.160156 -5.347656 9.359375 -7.546875 L 11.0625 -5.9375 C 10.457031 -4.84375 9.695312 -3.859375 8.78125 -2.984375 C 8.988281 -2.867188 9.203125 -2.734375 9.421875 -2.578125 C 10.046875 -2.109375 10.546875 -1.59375 10.921875 -1.03125 Z M 9.515625 0.703125 "/></g></g></g><g fill="#908cf6" fill-opacity="1"><g transform="translate(187.054529, 42.842425)"><g><path d="M 10.15625 -15.078125 C 10.15625 -15.078125 10.203125 -15.070312 10.296875 -15.0625 C 10.390625 -15.050781 10.515625 -15.035156 10.671875 -15.015625 C 10.835938 -15.003906 11.03125 -14.988281 11.25 -14.96875 C 11.46875 -14.957031 11.691406 -14.9375 11.921875 -14.90625 C 12.148438 -14.875 12.378906 -14.84375 12.609375 -14.8125 C 12.835938 -14.789062 13.050781 -14.765625 13.25 -14.734375 C 13.457031 -14.703125 13.640625 -14.671875 13.796875 -14.640625 C 13.953125 -14.617188 14.070312 -14.59375 14.15625 -14.5625 C 14.238281 -14.539062 14.28125 -14.519531 14.28125 -14.5 C 14.1875 -14.363281 14.035156 -14.101562 13.828125 -13.71875 C 13.617188 -13.34375 13.46875 -13.113281 13.375 -13.03125 C 13.375 -13.03125 13.359375 -13.03125 13.328125 -13.03125 C 13.273438 -13.03125 13.160156 -13.039062 12.984375 -13.0625 C 12.804688 -13.09375 12.5625 -13.132812 12.25 -13.1875 C 11.9375 -13.25 11.609375 -13.3125 11.265625 -13.375 C 10.921875 -13.445312 10.59375 -13.515625 10.28125 -13.578125 C 9.976562 -13.640625 9.726562 -13.691406 9.53125 -13.734375 C 9.332031 -13.773438 9.234375 -13.796875 9.234375 -13.796875 Z M 1.390625 -12.421875 L 2.984375 -14.4375 C 2.984375 -14.4375 3.257812 -14.316406 3.8125 -14.078125 C 4.375 -13.847656 4.957031 -13.554688 5.5625 -13.203125 C 6.175781 -12.847656 6.628906 -12.476562 6.921875 -12.09375 L 5.140625 -9.828125 Z M 17.25 -10.03125 L 13.484375 -10.03125 L 13.484375 -7.53125 L 16.953125 -7.53125 L 16.953125 -4.921875 L 13.484375 -4.921875 L 13.484375 -2.453125 L 17.84375 -2.453125 L 17.84375 0.125 L 6.578125 0.125 L 6.578125 -2.453125 L 10.515625 -2.453125 L 10.515625 -4.921875 L 7.140625 -4.921875 L 7.140625 -7.53125 L 10.515625 -7.53125 L 10.515625 -10.03125 L 7 -10.03125 L 7 -12.546875 L 17.25 -12.546875 Z M 2.25 -10.28125 C 2.25 -10.28125 2.519531 -10.21875 3.0625 -10.09375 C 3.613281 -9.96875 4.191406 -9.785156 4.796875 -9.546875 C 5.410156 -9.316406 5.851562 -9.035156 6.125 -8.703125 L 4.09375 -6.234375 L 1.0625 -8.65625 Z M 1.03125 -0.40625 L 4.546875 -6.203125 L 6.890625 -5.3125 C 6.703125 -4.363281 6.378906 -3.410156 5.921875 -2.453125 C 5.472656 -1.503906 5.039062 -0.703125 4.625 -0.046875 C 4.207031 0.609375 4 0.9375 4 0.9375 Z M 1.03125 -0.40625 "/></g></g></g><g fill="#908cf6" fill-opacity="1"><g transform="translate(205.923377, 42.842425)"><g><path d="M 18.359375 -6.609375 L 16.484375 -6.609375 C 16.460938 -6.265625 16.453125 -5.914062 16.453125 -5.5625 C 16.378906 -3.34375 16.21875 -1.832031 15.96875 -1.03125 C 15.695312 -0.382812 15.335938 0.046875 14.890625 0.265625 C 14.441406 0.492188 14.019531 0.609375 13.625 0.609375 C 13.613281 0.609375 13.503906 0.601562 13.296875 0.59375 C 13.097656 0.59375 12.925781 0.570312 12.78125 0.53125 C 12.65625 0.46875 12.507812 0.242188 12.34375 -0.140625 C 12.1875 -0.523438 12.03125 -0.875 11.875 -1.1875 C 11.769531 -1.425781 11.71875 -1.546875 11.71875 -1.546875 C 11.507812 -0.847656 11.265625 -0.210938 10.984375 0.359375 L 9.078125 -0.375 C 9.597656 -2.257812 9.9375 -4.335938 10.09375 -6.609375 L 8.734375 -6.609375 C 8.710938 -6.234375 8.703125 -5.859375 8.703125 -5.484375 C 8.628906 -3.253906 8.46875 -1.738281 8.21875 -0.9375 C 7.945312 -0.300781 7.585938 0.125 7.140625 0.34375 C 6.703125 0.570312 6.285156 0.6875 5.890625 0.6875 C 5.878906 0.6875 5.769531 0.679688 5.5625 0.671875 C 5.351562 0.671875 5.179688 0.648438 5.046875 0.609375 C 4.910156 0.546875 4.765625 0.328125 4.609375 -0.046875 C 4.453125 -0.429688 4.296875 -0.78125 4.140625 -1.09375 C 3.984375 -1.414062 3.90625 -1.578125 3.90625 -1.578125 C 4.28125 -1.597656 4.5625 -1.628906 4.75 -1.671875 C 4.945312 -1.722656 5.144531 -1.8125 5.34375 -1.9375 C 5.550781 -2.070312 5.738281 -2.300781 5.90625 -2.625 C 6.039062 -3.0625 6.117188 -4.046875 6.140625 -5.578125 C 6.140625 -5.921875 6.140625 -6.265625 6.140625 -6.609375 L 4.75 -6.609375 C 4.445312 -3.640625 3.804688 -1.289062 2.828125 0.4375 L 0.828125 -0.28125 C 1.472656 -2.195312 1.925781 -4.304688 2.1875 -6.609375 L 0.515625 -6.609375 L 0.515625 -9.046875 L 2.390625 -9.046875 C 2.429688 -9.835938 2.453125 -10.648438 2.453125 -11.484375 C 2.453125 -12.535156 2.414062 -13.617188 2.34375 -14.734375 L 4.546875 -14.703125 L 8.765625 -14.765625 C 8.765625 -14.765625 8.769531 -13.769531 8.78125 -11.78125 C 8.78125 -11.488281 8.78125 -11.191406 8.78125 -10.890625 C 8.78125 -10.273438 8.78125 -9.660156 8.78125 -9.046875 L 10.1875 -9.046875 C 10.1875 -9.253906 10.1875 -9.460938 10.1875 -9.671875 C 10.1875 -11.304688 10.097656 -13.023438 9.921875 -14.828125 L 12.09375 -14.78125 L 16.5 -14.84375 C 16.5 -14.84375 16.507812 -13.851562 16.53125 -11.875 C 16.53125 -11.5625 16.53125 -11.253906 16.53125 -10.953125 C 16.53125 -10.328125 16.53125 -9.691406 16.53125 -9.046875 L 18.359375 -9.046875 Z M 13.875 -9.046875 C 13.875 -9.421875 13.867188 -9.796875 13.859375 -10.171875 C 13.828125 -11.640625 13.8125 -12.375 13.8125 -12.375 L 12.453125 -12.359375 C 12.515625 -11.191406 12.550781 -10.085938 12.5625 -9.046875 Z M 6.140625 -9.046875 C 6.128906 -9.390625 6.117188 -9.738281 6.109375 -10.09375 C 6.078125 -11.550781 6.0625 -12.28125 6.0625 -12.28125 L 4.9375 -12.28125 C 4.957031 -11.820312 4.96875 -11.375 4.96875 -10.9375 C 4.96875 -10.28125 4.953125 -9.648438 4.921875 -9.046875 Z M 12.5 -6.609375 C 12.382812 -4.703125 12.128906 -3.054688 11.734375 -1.671875 C 12.066406 -1.703125 12.320312 -1.738281 12.5 -1.78125 C 12.6875 -1.820312 12.882812 -1.90625 13.09375 -2.03125 C 13.300781 -2.15625 13.484375 -2.378906 13.640625 -2.703125 C 13.785156 -3.140625 13.867188 -4.125 13.890625 -5.65625 C 13.890625 -5.976562 13.890625 -6.296875 13.890625 -6.609375 Z M 12.5 -6.609375 "/></g></g></g></svg>